HIERARCHY
ROOT Hips
{
  OFFSET 2.26061 22.2878 23.7974
  CHANNELS 6 Xposition Yposition Zposition Zrotation Xrotation Yrotation
  JOINT LeftUpLeg
  {
    OFFSET 8.64259 1.95398 -2.38835
    CHANNELS 3 Zrotation Xrotation Yrotation
    JOINT LeftLeg
    {
      OFFSET 43.7702 0 0
      CHANNELS 3 Zrotation Xrotation Yrotation
      JOINT LeftFoot
      {
        OFFSET 40.6238 0 0
        CHANNELS 3 Zrotation Xrotation Yrotation
        JOINT LeftToeBase
        {
          OFFSET 12.7242 0 0
          CHANNELS 3 Zrotation Xrotation Yrotation
          End Site
          {
            OFFSET 0 0 0
          }
        }
      }
    }
  }
  JOINT RightUpLeg
  {
    OFFSET -8.2249 1.95398 -2.59336
    CHANNELS 3 Zrotation Xrotation Yrotation
    JOINT RightLeg
    {
      OFFSET 43.5653 0 0
      CHANNELS 3 Zrotation Xrotation Yrotation
      JOINT RightFoot
      {
        OFFSET 40.6238 0 0
        CHANNELS 3 Zrotation Xrotation Yrotation
        JOINT RightToeBase
        {
          OFFSET 12.7242 0 0
          CHANNELS 3 Zrotation Xrotation Yrotation
          End Site
          {
            OFFSET 0 0 0
          }
        }
      }
    }
  }
  JOINT Spine
  {
    OFFSET 0.165834 0.87714 6.61349
    CHANNELS 3 Zrotation Xrotation Yrotation
    JOINT Spine1
    {
      OFFSET 7.38963 1.71661e-005 0
      CHANNELS 3 Zrotation Xrotation Yrotation
      JOINT Spine2
      {
        OFFSET 11.9445 1.14441e-005 0
        CHANNELS 3 Zrotation Xrotation Yrotation
        JOINT Spine3
        {
          OFFSET 14.7254 4.19617e-005 0
          CHANNELS 3 Zrotation Xrotation Yrotation
          JOINT Spine4
          {
            OFFSET 10.9679 0 0
            CHANNELS 3 Zrotation Xrotation Yrotation
            JOINT RightShoulder
            {
              OFFSET 2.46616 -1.6653 3.69651
              CHANNELS 3 Zrotation Xrotation Yrotation
              JOINT RightArm
              {
                OFFSET 13.0012 0 0
                CHANNELS 3 Zrotation Xrotation Yrotation
                JOINT RightForeArm
                {
                  OFFSET 28.7848 1.52588e-005 0
                  CHANNELS 3 Zrotation Xrotation Yrotation
                  JOINT RightHand
                  {
                    OFFSET 26.5688 1.52588e-005 0
                    CHANNELS 3 Zrotation Xrotation Yrotation
                    End Site
                    {
                      OFFSET 0 0 0
                    }
                  }
                }
              }
            }
            JOINT LeftShoulder
            {
              OFFSET 2.38034 -1.29275 -3.7523
              CHANNELS 3 Zrotation Xrotation Yrotation
              JOINT LeftArm
              {
                OFFSET 16.3182 6.10351e-005 0
                CHANNELS 3 Zrotation Xrotation Yrotation
                JOINT LeftForeArm
                {
                  OFFSET 27.0901 0 0
                  CHANNELS 3 Zrotation Xrotation Yrotation
                  JOINT LeftHand
                  {
                    OFFSET 24.5451 1.52588e-005 0
                    CHANNELS 3 Zrotation Xrotation Yrotation
                    End Site
                    {
                      OFFSET 0 0 0
                    }
                  }
                }
              }
            }
            JOINT Neck
            {
              OFFSET 5.0226 -0.0266342 0
              CHANNELS 3 Zrotation Xrotation Yrotation
              JOINT Head
              {
                OFFSET 6.69363 2.86102e-005 0
                CHANNELS 3 Zrotation Xrotation Yrotation
                End Site
                {
                  OFFSET 0 0 0
                }
              }
            }
          }
        }
      }
    }
  }
}
MOTION
Frames:	17
Frame Time:	0.0416667
-289.675 86.0489 -286.788 46.7322 -2.21521 72.4954 -179.046 72.8121 70.4577 -16.612 -39.9005 7.08448 56.3074 -6.04672 -100.41 22.9095 -9.06061 20.1905 90.2133 81.6566 148.937 -66.1156 -16.0228 8.60078 79.8389 -8.93377 -5.41459 -116.978 -45.8981 5.91205 8.64944 2.25047 -84.2339 22.0955 19.9817 6.97824 10.5712 20.2681 6.05972 -12.7949 16.9646 12.7812 7.21771 16.9647 12.7812 161.075 -35.0504 12.1938 -8.56522 -22.0653 -6.72618 39.3542 -72.4869 -1.98462 -44.3012 -2.29658 5.80175 -116.101 7.66107 -19.2276 -50.9302 33.8809 -18.358 157.004 54.7315 -179.949 40.91 5.62655 9.97492 -62.4223 -34.2103 -72.4531 130.332 19.8103 36.5015 
-290.162 86.1249 -287.172 46.6003 -2.30101 72.2046 -178.782 72.5894 70.3009 -15.1297 -43.0229 7.24788 55.7356 -5.54417 -103.539 22.7385 -9.01779 19.2744 91.629 81.6854 147.749 -66.699 -16.0261 8.53785 80.4474 -9.23087 -5.46925 -115.737 -46.3832 6.60835 8.65156 2.23237 -84.2269 22.1285 19.991 6.98976 10.6044 20.2779 6.07076 -12.7604 16.9638 12.7945 7.2522 16.9638 12.7945 160.781 -34.9968 11.8946 -9.13192 -23.1683 -7.07996 41.2415 -73.6305 -1.03262 -42.2223 -3.00994 7.84756 -117.288 6.77063 -19.1669 -51.289 32.9084 -16.6273 157.434 54.1603 -179.95 41.0028 5.44737 9.49676 -63.0682 -34.9445 -72.7198 131.859 20.2909 36.1744 
-291.533 86.364 -288.237 46.3058 -2.56384 71.389 -177.914 72.0525 69.6984 -11.5046 -50.185 7.60621 55.203 -4.07823 -110.414 22.9477 -8.05782 16.3281 96.8431 81.6687 143.19 -68.1851 -16.0081 8.34368 82.0806 -10.0492 -5.60788 -112.351 -47.3643 8.47429 8.65074 2.18863 -84.2136 22.2156 19.9969 6.99899 10.6915 20.2842 6.07973 -12.6721 16.9617 12.8047 7.34053 16.9617 12.8047 159.958 -34.8829 11.0217 -10.7822 -26.1866 -8.13958 45.2431 -76.9636 0.211247 -35.6177 -4.544 13.6322 -120.936 3.9859 -19.0382 -51.7844 29.7043 -11.6189 158.898 52.2951 -179.952 41.238 4.87759 8.00689 -65.6922 -37.4436 -73.8688 137.241 21.1963 34.7565 
-293.638 86.7576 -289.835 46.0312 -3.0176 70.1372 -176.288 71.49 68.4317 -7.70096 -56.7007 7.54067 56.5497 -3.2744 -116.335 24.909 -5.00387 11.3455 107.266 81.2938 133.798 -70.1209 -15.8475 8.00906 84.3924 -11.2627 -5.78112 -107.478 -48.0444 11.0441 8.6344 2.1331 -84.223 22.3339 19.9587 6.95961 10.8093 20.2444 6.0422 -12.5531 16.9378 12.7556 7.45956 16.9377 12.7556 158.69 -34.7917 9.58889 -13.4795 -30.6221 -9.9671 49.6196 -81.3621 0.153993 -24.5421 -5.37283 22.2388 -127.096 -0.832564 -19.0852 -50.6678 23.7341 -4.03053 161.849 49.0691 -179.959 41.5228 3.80571 5.28014 -74.098 -43.0237 -78.165 149.292 19.5467 31.0468 
-296.324 87.2251 -291.815 45.9735 -3.69495 68.5359 -173.703 71.2014 66.3144 -5.10859 -62.5334 6.85481 59.9493 -3.21144 -121.173 29.0688 -0.322239 5.46361 121.886 80.0202 120.49 -72.1528 -15.4302 7.54171 87.0381 -12.7435 -5.94301 -101.781 -47.9272 13.7976 8.5868 2.07885 -84.2924 22.4596 19.8271 6.81935 10.9335 20.1067 5.90837 -12.4246 16.8539 12.5817 7.58801 16.8538 12.5817 157.024 -34.8146 7.54789 -17.2599 -35.9504 -12.7151 55.5447 -84.6831 0.260911 -11.9186 -4.31978 32.0364 -135.686 -7.60474 -19.808 -45.2974 15.1381 5.0752 166.611 44.8202 -179.972 41.6269 2.09479 1.03558 -103.38 -50.5962 -97.2465 167.281 4.31542 28.0164 
-299.445 87.6403 -294.044 46.3184 -4.6565 66.6721 -169.801 71.4149 63.0413 -5.14969 -67.185 5.24432 64.5632 -4.30702 -124.563 34.2212 4.27773 0.318627 136.576 77.2928 107.26 -74.0601 -14.6622 6.96105 89.6726 -14.3532 -6.06494 -95.7182 -46.8551 16.3214 8.48665 2.03916 -84.4561 22.5703 19.5416 6.52635 11.0407 19.8088 5.62931 -12.3069 16.6686 12.215 7.70578 16.6686 12.215 154.93 -35.0467 4.75523 -22.2506 -41.6634 -16.6368 62.4694 -86.3364 0.396277 -1.7169 -1.82992 41.7605 -146.53 -15.778 -21.905 -33.4996 5.90481 14.64 172.511 40.5581 -179.985 41.1119 -0.249968 -4.77124 -9.73095 -24.6957 -17.2444 -77.831 33.9672 -69.1792 
-302.266 87.885 -296.066 42.7677 -3.44832 63.8533 -169.271 78.0832 66.696 -8.75185 -70.9263 2.29906 69.4383 -6.86711 -126.64 38.804 7.73985 -3.21126 163.271 78.0026 77.3941 -75.209 -13.5793 6.66203 92.0714 -15.8949 -6.18628 -89.5275 -44.7603 18.2943 8.29924 1.47015 -84.8129 23.3558 19.1139 6.80993 11.8143 19.3944 5.93405 -11.4366 16.1816 12.3418 8.57604 16.1816 12.3418 152.279 -35.5966 0.914532 -28.6389 -47.2836 -22.0778 69.825 -87.355 0.574322 4.44391 0.991087 51.0242 -159.269 -24.1193 -26.0432 -16.0273 -0.286801 23.0143 177.326 38.4078 -179.995 39.5043 -2.82275 -11.5055 -13.6828 -29.5121 -15.9549 -97.5422 27.3144 -49.334 
-314.448 86.9608 -303.507 115.31 -23.984 91.5495 -175.058 6.43683 67.0746 -12.8108 -71.2777 3.58791 71.1562 -4.84526 -127.252 41.3853 9.39614 -6.56554 160.825 0.00657349 90.0128 -84.8929 -10.568 0.800582 91.899 -17.6677 -5.55528 -82.3955 -42.2236 20.3263 8.46854 8.20963 -90.1397 13.0884 16.6527 -4.52998 1.52504 16.4351 -5.27649 -21.9716 17.2221 0.837764 -1.95898 17.2221 0.837765 148.773 -36.6127 -4.54269 -36.5293 -52.3867 -29.3752 -105.503 -89.0578 178.317 7.13227 3.45232 59.6238 -172.803 -30.8657 -32.1861 2.14337 -1.25712 27.8079 178.901 41.6191 -179.998 36.8937 -4.86551 -17.7077 -14.2044 -29.9178 -11.3305 -101.412 18.4755 -40.6851 
-319.311 86.8508 -307.069 130.954 -23.8685 98.6245 -172.96 3.93186 79.0861 -15.2915 -73.6274 1.27847 73.2923 -4.64049 -127.702 43.3616 10.5861 -8.39732 162.131 -5.75858 72.9364 -87.5163 -8.30587 -0.703378 92.1492 -18.4822 -5.412 -75.4812 -38.0734 20.8761 8.06407 8.42912 -92.4963 10.4674 14.9237 -6.27335 -1.13455 14.6336 -6.93453 -24.3646 16.1027 -1.38997 -4.3519 16.1027 -1.38997 143.888 -38.3144 -12.6009 -45.5721 -56.6524 -38.5007 -98.145 -67.062 179.926 7.55012 5.33038 67.2632 175.46 -34.6922 -38.6786 15.2717 2.03029 29.079 177.284 53.0628 -179.993 34.3285 -6.05697 -22.2293 -13.4749 -28.9977 -5.79003 -102.33 10.7206 -33.6077 
-321.753 86.7132 -309.188 127.168 -26.8361 96.7747 -172.055 9.61303 78.575 -19.3625 -76.2798 -2.65055 74.9636 -5.45939 -128.015 44.5824 11.2712 -9.58906 162.504 -7.82011 73.5308 -87.5398 -7.45842 -0.884999 90.3394 -18.2181 -6.77946 -68.2287 -32.5417 20.0526 6.27025 8.94498 -92.0767 9.24741 11.5759 -4.95151 -2.38258 11.3469 -5.46098 -25.3319 12.5214 -1.19338 -5.31923 12.5214 -1.19338 131.454 -39.8239 -32.1153 -57.418 -56.529 -54.4272 -97.8873 14.0098 179.969 6.98627 9.50129 73.21 175.31 -35.5149 -38.3407 11.3664 9.52314 24.1698 170.844 87.2018 -179.726 34.6396 -7.36902 -25.9019 -2.89792 -23.4739 9.91403 -103.915 4.92946 -23.4637 
-323.786 86.3297 -310.931 122.328 -29.5904 94.08 -171.209 16.1599 77.87 -24.595 -78.7035 -7.1469 75.7059 -6.26647 -128.175 45.1346 11.5192 -10.5755 162.964 -8.90175 74.0954 -86.89 -5.25062 -1.01756 86.3676 -16.6211 -6.65905 -60.0585 -26.009 17.9922 4.8079 8.91234 -91.4057 9.1886 8.96038 -3.42363 -2.45716 8.80116 -3.81701 -25.237 9.57138 -0.549757 -5.22439 9.57138 -0.549758 120.517 -42.4446 -51.1324 -61.2414 -57.3289 -61.1976 -101.671 34.7807 179.963 5.72775 7.48922 78.6284 178.441 -36.5059 -35.4676 5.66339 16.7365 24.3875 -13.7514 61.9618 -0.0382321 32.9908 -8.58363 -30.5749 3.12177 -17.5639 15.14 -101.037 -1.08037 -15.4594 
-325.268 85.8141 -312.166 116.492 -32.0021 90.43 -170.469 22.9567 76.915 -30.532 -81.0446 -12.4332 75.617 -6.92042 -128.248 45.1994 11.4663 -11.412 163.598 -8.79675 74.5299 -85.534 -3.42105 -1.14477 79.6427 -13.7598 -6.39214 -50.6238 -19.2493 14.9893 3.12844 8.9038 -90.6333 9.11633 5.95677 -1.67499 -2.54232 5.87727 -1.93635 -25.1879 6.18374 0.199514 -5.17529 6.18373 0.199508 108.061 -43.115 -71.9935 -61.5673 -55.2733 -65.2301 -105.228 35.8791 179.962 4.71972 8.13413 82.2531 -173.209 -38.8087 -27.5295 -2.40851 21.3977 22.2653 -17.1158 32.1376 -0.0228365 30.036 -9.22783 -35.1315 11.7612 -10.1374 17.8504 -96.8309 -5.85806 -6.63809 
-326.092 85.1972 -312.828 110.105 -33.9407 86.1636 -169.835 29.516 75.8664 -37.4881 -83.2766 -18.8455 74.899 -7.53409 -128.258 44.8793 11.1949 -12.0586 164.449 -7.77498 74.8039 -83.4947 -2.04167 -1.30298 70.9822 -10.1104 -5.60315 -40.2043 -13.3389 11.656 1.90343 8.56811 -89.9934 9.74615 3.79756 -0.286876 -1.91931 3.78126 -0.454001 -24.4976 3.70792 0.86932 -4.48495 3.70796 0.869322 99.2037 -42.9835 -87.0539 -59.9787 -53.7793 -66.2977 -107.429 31.4336 179.963 4.26315 8.31177 84.3808 -166.894 -42.3061 -19.9368 -7.21948 21.7956 21.221 -17.0328 14.9131 -0.0199482 26.5648 -8.89063 -37.5834 16.6711 -5.27694 16.4101 -89.1511 -8.47671 -0.0734476 
-326.134 84.5564 -312.895 104.013 -35.4024 82.2887 -169.426 35.2434 75.2343 -44.953 -85.1459 -25.6359 73.8018 -8.31564 -128.2 44.2159 10.7478 -12.4066 165.506 -6.65091 75.1864 -80.7402 -1.12595 -1.48773 61.6597 -6.41399 -4.23268 -29.8121 -8.98189 8.65405 1.01505 8.08495 -89.5878 10.6989 2.21125 0.617374 -0.970274 2.23626 0.519405 -23.5165 1.92346 1.25361 -3.5038 1.92346 1.2536 92.9379 -42.3776 -97.7851 -57.0606 -53.1522 -65.6124 -108.41 23.2994 179.966 4.77336 8.45014 84.6039 -162.335 -46.5175 -13.0613 -10.4667 19.9765 20.8358 -15.2281 5.83472 -0.0182165 23.7082 -8.17697 -38.3121 18.2678 -2.18201 14.4618 -78.2557 -8.56554 4.11083 
-325.236 84.0127 -312.24 98.8765 -36.7023 79.3697 -169.586 39.4878 75.3674 -50.9201 -86.6284 -30.9121 72.3791 -9.36523 -127.967 43.1583 10.0992 -12.3531 166.722 -5.91963 75.6895 -77.4943 -0.539758 -1.78167 52.9745 -3.27606 -2.50487 -20.5587 -6.19384 6.41396 0.430464 7.70008 -89.3528 11.4666 1.15891 1.17158 -0.204304 1.20936 1.11943 -22.7373 0.753258 1.46568 -2.72469 0.753289 1.46568 89.2437 -42.1692 -104.077 -52.613 -51.7764 -63.4484 -108.791 9.64123 179.969 6.80722 8.73875 82.1276 -157.707 -51.084 -5.64785 -12.2054 17.048 20.1116 -12.537 2.6028 -0.0162257 21.5285 -7.33892 -37.6927 18.5922 -0.342291 12.9119 -64.8832 -6.80344 5.4802 
-323.219 83.6857 -310.662 95.4592 -37.9985 77.7019 -170.611 41.2845 76.2785 -68.0376 -88.4334 -47.7311 70.4114 -10.1832 -128.433 41.5322 9.13737 -11.7029 167.84 -5.91416 76.0669 -74.2309 -0.0727326 -2.22659 45.8146 -0.916821 -0.744383 -13.0511 -4.56298 5.0265 0.0702611 7.49102 -89.2035 11.8858 0.514784 1.53326 0.214065 0.581759 1.50912 -22.3138 0.0302329 1.61707 -2.30119 0.0302447 1.61707 87.2505 -42.916 -107.165 -45.8192 -49.5934 -59.0301 -110.329 -11.3486 179.97 11.148 9.2582 75.0142 -152.34 -55.7167 2.74929 -13.0457 13.8549 19.4673 -9.52058 3.08292 -0.0138906 19.8215 -6.43353 -35.927 16.831 0.339872 12.2951 -48.5364 -4.27016 3.61236 
-319.771 83.6827 -307.926 92.9531 -39.6791 76.9673 -172.457 40.9345 78.0355 -38.9237 -88.7849 -18.9432 67.957 -11.3535 -127.296 38.9022 7.54925 -10.0131 169.23 -5.76147 76.6473 -71.37 0.410837 -2.87894 40.4511 0.754674 0.824764 -7.34236 -3.66725 4.37894 -0.0890162 7.36349 -89.1008 12.1416 0.248412 1.76701 0.469457 0.32594 1.75436 -22.0562 -0.294038 1.75999 -2.04355 -0.294046 1.75999 86.2064 -45.0527 -108.159 -35.7953 -46.075 -51.4041 -116.816 -33.1526 179.967 18.8597 9.28929 58.1137 -145.21 -60.1563 13.0599 -13.599 10.9994 19.1795 -6.63764 5.65369 -0.0100176 18.3364 -5.43087 -33.0099 11.4945 -0.0680747 12.8801 -28.8928 -2.50271 -1.5236 
